<svg xmlns="http://www.w3.org/2000/svg" viewBox="0 0 200 200" width="100%" height="100%">
  <!-- Fondo y borde del sello -->
  <circle cx="100" cy="100" r="95" fill="#f5f5f4" stroke="#0f766e" stroke-width="4"/>
  <circle cx="100" cy="100" r="82" fill="none" stroke="#0f766e" stroke-width="1" stroke-dasharray="4 4"/>
  
  <!-- Icono central (tres personas unidas) -->
  <path d="M100 55 C115 55 125 65 125 80 C125 95 115 105 100 105 C85 105 75 95 75 80 C75 65 85 55 100 55 Z" fill="#0f766e"/>
  <path d="M50 145 C50 120 70 105 100 105 C130 105 150 120 150 145 L150 155 L50 155 Z" fill="#0f766e"/>
  <circle cx="100" cy="75" r="12" fill="#f5f5f4"/>
  
  <!-- Texto del Sello -->
  <path id="text-path" d="M 40 100 A 60 60 0 1 1 160 100" fill="none" />
  <text font-family="system-ui, sans-serif" font-weight="bold" font-size="18" fill="#0f766e" letter-spacing="2">
    <textPath href="#text-path" startOffset="50%" text-anchor="middle">FRENTE CÍVICO</textPath>
  </text>
  <text x="100" y="145" font-family="system-ui, sans-serif" font-weight="600" font-size="10" fill="#f5f5f4" text-anchor="middle" letter-spacing="1">ACCIÓN CIUDADANA</text>
</svg>
